<svg xmlns="http://www.w3.org/2000/svg" viewBox="0 0 32 32"><circle cx="16" cy="16" r="15" fill="#F7931A"/><path fill="#fff" d="m21.7 13.6c.3-2-1.2-3-3.2-3.7l.7-2.6-1.6-.4-.6 2.6-1.3-.3.6-2.6-1.6-.4-.6 2.7-3.3-.8-.4 1.7 1.2.3c.7.2.8.6.8 1l-1.8 7.2c-.1.2-.3.6-.8.5l-1.2-.3-.8 1.8 3.3.8-.7 2.7 1.6.4.7-2.7 1.3.3-.7 2.7 1.6.4.7-2.7c2.8.5 5 .3 5.9-2.2.7-2-.1-3.2-1.6-3.9 1.1-.3 2-.9 2.2-2.5Zm-3.8 5.5c-.5 2-3.9.9-5  .6l.9-3.6c1.1.3 4.7.9 4.1 3Zm.5-5.5c-.5 1.8-3.3.9-4.2.7L15 11c.9.2 3.9.7 3.4 2.6Z"/></svg>
